<svg width="188" height="49" viewBox="0 0 188 49" fill="none" xmlns="http://www.w3.org/2000/svg">
<path d="M0 4.46153C0 2.25239 1.79086 0.461533 4 0.461533H184C186.209 0.461533 188 2.25239 188 4.46153V44.4615C188 46.6707 186.209 48.4615 184 48.4615H4C1.79086 48.4615 0 46.6707 0 44.4615V4.46153Z" fill="black"/>
<path d="M21.7077 31.4615V17.6434H26.9974C27.996 17.6434 28.8259 17.8008 29.4871 18.1157C30.1528 18.426 30.6499 18.8511 30.9782 19.3909C31.3111 19.9306 31.4775 20.5424 31.4775 21.2261C31.4775 21.7884 31.3696 22.2697 31.1537 22.67C30.9378 23.0658 30.6476 23.3874 30.2833 23.6348C29.9189 23.8822 29.5119 24.0599 29.0621 24.1679V24.3028C29.5523 24.3298 30.0224 24.4805 30.4722 24.7549C30.9265 25.0247 31.2976 25.4071 31.5855 25.9019C31.8734 26.3967 32.0173 26.9949 32.0173 27.6966C32.0173 28.4118 31.8441 29.055 31.4978 29.6263C31.1514 30.1931 30.6296 30.6406 29.9324 30.969C29.2352 31.2974 28.3581 31.4615 27.301 31.4615H21.7077ZM24.2108 29.3699H26.903C27.8116 29.3699 28.4661 29.1967 28.8664 28.8504C29.2712 28.4995 29.4736 28.0497 29.4736 27.5009C29.4736 27.0916 29.3724 26.7228 29.17 26.3944C28.9676 26.0616 28.6797 25.8007 28.3064 25.6117C27.933 25.4183 27.4877 25.3216 26.9704 25.3216H24.2108V29.3699ZM24.2108 23.5201H26.6871C27.1189 23.5201 27.508 23.4414 27.8543 23.284C28.2007 23.122 28.4728 22.8949 28.6707 22.6025C28.8731 22.3056 28.9743 21.9548 28.9743 21.55C28.9743 21.0147 28.7854 20.5739 28.4076 20.2275C28.0342 19.8812 27.4787 19.708 26.741 19.708H24.2108V23.5201ZM40.6925 27.1029V21.0979H43.1349V31.4615H40.7667V29.6196H40.6587C40.4248 30.1998 40.0402 30.6744 39.505 31.0432C38.9742 31.4121 38.3197 31.5965 37.5415 31.5965C36.8623 31.5965 36.2618 31.4458 35.7401 31.1444C35.2228 30.8385 34.8179 30.3955 34.5256 29.8152C34.2332 29.2305 34.087 28.5243 34.087 27.6966V21.0979H36.5295V27.3188C36.5295 27.9755 36.7094 28.4973 37.0692 28.8841C37.4291 29.271 37.9014 29.4644 38.4862 29.4644C38.846 29.4644 39.1946 29.3767 39.532 29.2012C39.8693 29.0258 40.146 28.7649 40.3619 28.4186C40.5823 28.0677 40.6925 27.6291 40.6925 27.1029ZM47.1647 35.3479C46.8318 35.3479 46.5237 35.3209 46.2403 35.2669C45.9614 35.2175 45.7388 35.159 45.5724 35.0915L46.1391 33.1888C46.4945 33.2923 46.8116 33.3417 47.0905 33.3372C47.3693 33.3327 47.6145 33.245 47.8259 33.0741C48.0418 32.9077 48.224 32.6288 48.3724 32.2375L48.5816 31.6774L44.8234 21.0979H47.4143L49.8028 28.9246H49.9108L52.306 21.0979H54.9037L50.7542 32.7165C50.5608 33.2653 50.3044 33.7353 49.985 34.1267C49.6656 34.5225 49.2743 34.8239 48.811 35.0308C48.3522 35.2422 47.8034 35.3479 47.1647 35.3479ZM63.4456 31.4615L60.5173 21.0979H63.007L64.8287 28.3848H64.9232L66.7854 21.0979H69.2481L71.1104 28.3443H71.2116L73.0063 21.0979H75.5028L72.5677 31.4615H70.0241L68.0809 24.458H67.9392L65.996 31.4615H63.4456ZM77.2081 31.4615V21.0979H79.6506V31.4615H77.2081ZM78.4361 19.627C78.0492 19.627 77.7164 19.4988 77.4375 19.2424C77.1586 18.9815 77.0192 18.6689 77.0192 18.3046C77.0192 17.9357 77.1586 17.6231 77.4375 17.3667C77.7164 17.1058 78.0492 16.9754 78.4361 16.9754C78.8274 16.9754 79.1603 17.1058 79.4347 17.3667C79.7135 17.6231 79.853 17.9357 79.853 18.3046C79.853 18.6689 79.7135 18.9815 79.4347 19.2424C79.1603 19.4988 78.8274 19.627 78.4361 19.627ZM87.3373 21.0979V22.9871H81.3795V21.0979H87.3373ZM82.8504 18.6149H85.2929V28.3443C85.2929 28.6727 85.3424 28.9246 85.4413 29.1C85.5448 29.271 85.6797 29.3879 85.8461 29.4509C86.0126 29.5139 86.197 29.5453 86.3994 29.5453C86.5523 29.5453 86.6918 29.5341 86.8177 29.5116C86.9482 29.4891 87.0471 29.4689 87.1146 29.4509L87.5262 31.3603C87.3957 31.4053 87.2091 31.4548 86.9662 31.5088C86.7278 31.5627 86.4354 31.5942 86.089 31.6032C85.4773 31.6212 84.9263 31.529 84.436 31.3266C83.9457 31.1197 83.5566 30.8003 83.2687 30.3685C82.9854 29.9367 82.8459 29.3969 82.8504 28.7492V18.6149ZM92.0451 25.3891V31.4615H89.6026V17.6434H91.9911V22.8589H92.1126C92.3555 22.2742 92.7311 21.8131 93.2393 21.4757C93.7521 21.1339 94.4044 20.963 95.196 20.963C95.9157 20.963 96.5432 21.1136 97.0785 21.415C97.6138 21.7164 98.0276 22.1572 98.32 22.7375C98.6168 23.3177 98.7653 24.0262 98.7653 24.8628V31.4615H96.3228V25.2407C96.3228 24.5434 96.1429 24.0014 95.783 23.6146C95.4277 23.2233 94.9284 23.0276 94.2852 23.0276C93.8533 23.0276 93.4665 23.122 93.1246 23.311C92.7873 23.4954 92.5219 23.763 92.3285 24.1139C92.1396 24.4647 92.0451 24.8898 92.0451 25.3891Z" fill="white"/>
<path d="M161.8 28.815L158.336 21.2464H155.461L160.409 31.4585L160.32 31.766C160.196 32.1748 159.934 32.5278 159.58 32.7647C159.225 33.0017 158.799 33.108 158.375 33.0654C157.879 33.0608 157.392 32.9294 156.96 32.6835L156.5 34.8708C157.164 35.1451 157.875 35.2882 158.593 35.2923C160.572 35.2923 161.77 34.5633 162.76 32.4157L168 21.2464H165.224L161.8 28.815Z" fill="white"/>
<path d="M137.319 17.6407H129.015V31.5527H131.737V26.4393H137.319C140.352 26.4393 142.346 24.9067 142.346 22.04C142.346 19.1733 140.352 17.6407 137.319 17.6407ZM137.17 24.004H131.727V20.0363H137.17C138.744 20.0363 139.644 20.7554 139.644 22.0201C139.644 23.2849 138.744 24.004 137.17 24.004Z" fill="white"/>
<path d="M153.725 28.9142V24.7232C153.725 22.2433 151.948 20.9588 148.9 20.9588C146.426 20.9588 144.259 22.1144 143.65 23.89L145.887 24.6835C146.218 23.7957 147.371 23.141 148.806 23.141C150.508 23.141 151.226 23.8354 151.226 24.6835V24.9563L147.178 25.4027C144.847 25.6507 143.313 26.6972 143.313 28.567C143.313 30.6153 145.07 31.7164 147.401 31.7164C148.903 31.7633 150.366 31.2307 151.488 30.2285C151.894 31.2204 152.31 31.885 155.076 31.5329V29.4597C153.967 29.7275 153.725 29.4597 153.725 28.9142ZM151.251 27.5849C151.251 28.934 149.365 29.6482 147.787 29.6482C146.584 29.6482 145.862 29.2613 145.862 28.4926C145.862 27.7238 146.456 27.4461 147.604 27.3122L151.261 26.8856L151.251 27.5849Z" fill="white"/>
<path d="M123.868 28.2892C123.887 28.3472 123.887 28.4098 123.868 28.4678C123.857 28.5256 123.829 28.5789 123.789 28.6215L121.171 31.3742C121.113 31.4336 121.044 31.4808 120.968 31.513C120.892 31.5466 120.809 31.5635 120.726 31.5626H108.31C108.252 31.5631 108.196 31.5477 108.147 31.518C108.097 31.4844 108.058 31.4382 108.033 31.3841C108.015 31.3292 108.015 31.2703 108.033 31.2155C108.043 31.1584 108.069 31.1052 108.107 31.0617L110.73 28.3091C110.787 28.2496 110.856 28.2024 110.933 28.1702C111.009 28.1362 111.092 28.1193 111.175 28.1206H123.571C123.631 28.1195 123.689 28.1368 123.739 28.1702C123.795 28.1932 123.84 28.2354 123.868 28.2892ZM121.176 23.0617C121.117 23.0038 121.048 22.9568 120.973 22.9228C120.896 22.8916 120.814 22.8748 120.731 22.8732H108.31C108.252 22.8741 108.195 22.8912 108.146 22.9228C108.097 22.9544 108.058 22.999 108.033 23.0518C108.016 23.1067 108.016 23.1655 108.033 23.2204C108.041 23.2781 108.067 23.3318 108.107 23.3741L110.73 26.1317C110.789 26.1896 110.857 26.2366 110.933 26.2706C111.01 26.3023 111.092 26.3191 111.175 26.3202H123.571C123.631 26.3214 123.689 26.304 123.739 26.2706C123.789 26.2414 123.828 26.1959 123.848 26.1417C123.873 26.0889 123.882 26.0295 123.872 25.9718C123.862 25.914 123.835 25.8607 123.794 25.8193L121.176 23.0617ZM108.147 21.0282C108.196 21.0579 108.252 21.0733 108.31 21.0728H120.731C120.814 21.0737 120.897 21.0568 120.973 21.0232C121.049 20.991 121.118 20.9438 121.176 20.8844L123.794 18.1317C123.834 18.0891 123.862 18.0358 123.873 17.978C123.89 17.9231 123.89 17.8642 123.873 17.8093C123.852 17.7551 123.814 17.7096 123.764 17.6804C123.714 17.647 123.655 17.6297 123.596 17.6308H111.155C111.072 17.6295 110.989 17.6464 110.913 17.6804C110.837 17.7126 110.768 17.7598 110.71 17.8193L108.092 20.5818C108.051 20.6237 108.023 20.6774 108.013 20.7356C107.996 20.7904 107.996 20.8494 108.013 20.9042C108.045 20.9572 108.091 21.0002 108.147 21.0282V21.0282Z" fill="url(#paint0_linear_2_72)"/>
<defs>
<linearGradient id="paint0_linear_2_72" x1="109.341" y1="31.8947" x2="122.092" y2="17.2359" gradientUnits="userSpaceOnUse">
<stop offset="0.08" stop-color="#9945FF"/>
<stop offset="0.3" stop-color="#8752F3"/>
<stop offset="0.5" stop-color="#5497D5"/>
<stop offset="0.6" stop-color="#43B4CA"/>
<stop offset="0.72" stop-color="#28E0B9"/>
<stop offset="0.97" stop-color="#19FB9B"/>
</linearGradient>
</defs>
</svg>
