<svg width="100" height="49" viewBox="0 0 100 49" fill="none" xmlns="http://www.w3.org/2000/svg">
<path d="M0 4.13516C0 1.92602 1.79086 0.135162 4 0.135162H96C98.2091 0.135162 100 1.92602 100 4.13516V44.1352C100 46.3443 98.2091 48.1352 96 48.1352H4C1.79086 48.1352 0 46.3443 0 44.1352V4.13516Z" fill="white"/>
<path d="M73.7996 28.4886L70.3357 20.92H67.4607L72.4091 31.1321L72.32 31.4396C72.1961 31.8484 71.9345 32.2014 71.5798 32.4384C71.2252 32.6753 70.7994 32.7816 70.3753 32.739C69.8788 32.7344 69.3917 32.603 68.9601 32.3571L68.4999 34.5444C69.164 34.8187 69.8747 34.9619 70.593 34.966C72.5724 34.966 73.7699 34.2369 74.7596 32.0893L80 20.92H77.2239L73.7996 28.4886Z" fill="black"/>
<path d="M49.3187 17.3143H41.0153V31.2263H43.7369V26.1129H49.3187C52.3521 26.1129 54.3463 24.5803 54.3463 21.7136C54.3463 18.8469 52.3521 17.3143 49.3187 17.3143ZM49.1703 23.6776H43.727V19.7099H49.1703C50.7438 19.7099 51.6445 20.429 51.6445 21.6938C51.6445 22.9585 50.7438 23.6776 49.1703 23.6776Z" fill="black"/>
<path d="M65.7249 28.5878V24.3968C65.7249 21.917 63.9484 20.6324 60.9002 20.6324C58.426 20.6324 56.2586 21.788 55.6499 23.5636L57.8866 24.3571C58.2182 23.4693 59.3711 22.8147 60.8062 22.8147C62.5084 22.8147 63.226 23.509 63.226 24.3571V24.6299L59.1782 25.0763C56.8475 25.3243 55.3134 26.3708 55.3134 28.2406C55.3134 30.2889 57.0701 31.39 59.4008 31.39C60.9031 31.4369 62.3661 30.9044 63.4882 29.9021C63.894 30.894 64.3097 31.5586 67.0758 31.2065V29.1333C65.9674 29.4012 65.7249 29.1333 65.7249 28.5878ZM63.2507 27.2586C63.2507 28.6076 61.3654 29.3218 59.7868 29.3218C58.5843 29.3218 57.8619 28.9349 57.8619 28.1662C57.8619 27.3974 58.4557 27.1197 59.6037 26.9858L63.2606 26.5592L63.2507 27.2586Z" fill="black"/>
<path d="M35.8678 27.9629C35.8871 28.0208 35.8871 28.0834 35.8678 28.1414C35.8566 28.1992 35.8292 28.2526 35.7886 28.2952L33.1709 31.0478C33.1132 31.1072 33.0442 31.1544 32.968 31.1867C32.8916 31.2202 32.809 31.2371 32.7256 31.2363H20.31C20.2525 31.2368 20.196 31.2213 20.1467 31.1916C20.0974 31.158 20.0581 31.1118 20.0329 31.0577C20.0154 31.0029 20.0154 30.9439 20.0329 30.8891C20.0431 30.832 20.0688 30.7788 20.1071 30.7353L22.7298 27.9827C22.7874 27.9233 22.8564 27.876 22.9326 27.8438C23.0089 27.8098 23.0917 27.7929 23.1751 27.7942H35.5709C35.6307 27.7931 35.6895 27.8104 35.7391 27.8438C35.7948 27.8668 35.8405 27.9091 35.8678 27.9629ZM33.1759 22.7353C33.1169 22.6774 33.0482 22.6304 32.973 22.5964C32.8958 22.5652 32.8137 22.5484 32.7305 22.5468H20.31C20.2518 22.5477 20.195 22.5649 20.146 22.5964C20.097 22.628 20.0578 22.6727 20.0329 22.7254C20.0158 22.7803 20.0158 22.8391 20.0329 22.894C20.0412 22.9517 20.0671 23.0054 20.1071 23.0478L22.7298 25.8054C22.7887 25.8632 22.8574 25.9103 22.9326 25.9442C23.0096 25.9759 23.0919 25.9927 23.1751 25.9938H35.5709C35.6307 25.995 35.6895 25.9777 35.7391 25.9442C35.7891 25.915 35.8275 25.8695 35.848 25.8153C35.8734 25.7625 35.8818 25.7032 35.872 25.6454C35.8623 25.5877 35.8349 25.5344 35.7936 25.4929L33.1759 22.7353ZM20.1467 20.7018C20.196 20.7315 20.2525 20.747 20.31 20.7465H32.7305C32.8139 20.7473 32.8966 20.7304 32.973 20.6969C33.0492 20.6646 33.1182 20.6174 33.1759 20.558L35.7936 17.8054C35.8341 17.7628 35.8616 17.7094 35.8728 17.6516C35.8899 17.5967 35.8899 17.5379 35.8728 17.483C35.8523 17.4288 35.8139 17.3832 35.7639 17.354C35.7142 17.3206 35.6555 17.3033 35.5956 17.3044H23.1553C23.0719 17.3031 22.9891 17.32 22.9129 17.354C22.8366 17.3863 22.7676 17.4335 22.71 17.4929L20.0923 20.2555C20.0507 20.2973 20.0231 20.351 20.0131 20.4092C19.9956 20.4641 19.9956 20.523 20.0131 20.5778C20.0452 20.6309 20.0915 20.6738 20.1467 20.7018Z" fill="url(#paint0_linear_2_56)"/>
<path d="M4 1.13516H96V-0.864838H4V1.13516ZM99 4.13516V44.1352H101V4.13516H99ZM96 47.1352H4V49.1352H96V47.1352ZM1 44.1352V4.13516H-1V44.1352H1ZM4 47.1352C2.34315 47.1352 1 45.792 1 44.1352H-1C-1 46.8966 1.23858 49.1352 4 49.1352V47.1352ZM99 44.1352C99 45.792 97.6569 47.1352 96 47.1352V49.1352C98.7614 49.1352 101 46.8966 101 44.1352H99ZM96 1.13516C97.6569 1.13516 99 2.47831 99 4.13516H101C101 1.37374 98.7614 -0.864838 96 -0.864838V1.13516ZM4 -0.864838C1.23858 -0.864838 -1 1.37374 -1 4.13516H1C1 2.47831 2.34315 1.13516 4 1.13516V-0.864838Z" fill="black"/>
<defs>
<linearGradient id="paint0_linear_2_56" x1="21.3409" y1="31.5683" x2="34.0922" y2="16.9095" gradientUnits="userSpaceOnUse">
<stop offset="0.08" stop-color="#9945FF"/>
<stop offset="0.3" stop-color="#8752F3"/>
<stop offset="0.5" stop-color="#5497D5"/>
<stop offset="0.6" stop-color="#43B4CA"/>
<stop offset="0.72" stop-color="#28E0B9"/>
<stop offset="0.97" stop-color="#19FB9B"/>
</linearGradient>
</defs>
</svg>
