<svg width="100" height="48" viewBox="0 0 100 48" fill="none" xmlns="http://www.w3.org/2000/svg">
<path d="M0 4C0 1.79086 1.79086 0 4 0H96C98.2091 0 100 1.79086 100 4V44C100 46.2091 98.2091 48 96 48H4C1.79086 48 0 46.2091 0 44V4Z" fill="black"/>
<path d="M73.7996 28.3534L70.3357 20.7849H67.4607L72.4091 30.9969L72.32 31.3044C72.1961 31.7132 71.9345 32.0662 71.5798 32.3032C71.2252 32.5402 70.7994 32.6465 70.3753 32.6039C69.8788 32.5993 69.3917 32.4678 68.9601 32.222L68.4999 34.4092C69.164 34.6835 69.8747 34.8267 70.593 34.8308C72.5724 34.8308 73.7699 34.1017 74.7596 31.9542L80 20.7849H77.2239L73.7996 28.3534Z" fill="white"/>
<path d="M49.3187 17.1792H41.0153V31.0912H43.7369V25.9777H49.3187C52.3521 25.9777 54.3463 24.4452 54.3463 21.5784C54.3463 18.7117 52.3521 17.1792 49.3187 17.1792ZM49.1703 23.5425H43.727V19.5747H49.1703C50.7438 19.5747 51.6445 20.2939 51.6445 21.5586C51.6445 22.8233 50.7438 23.5425 49.1703 23.5425Z" fill="white"/>
<path d="M65.7249 28.4526V24.2616C65.7249 21.7818 63.9485 20.4972 60.9002 20.4972C58.426 20.4972 56.2586 21.6528 55.65 23.4284L57.8867 24.222C58.2182 23.3342 59.3712 22.6795 60.8062 22.6795C62.5085 22.6795 63.226 23.3739 63.226 24.222V24.4948L59.1782 24.9411C56.8475 25.1891 55.3135 26.2356 55.3135 28.1054C55.3135 30.1538 57.0702 31.2548 59.4009 31.2548C60.9032 31.3018 62.3662 30.7692 63.4883 29.7669C63.894 30.7589 64.3097 31.4235 67.0759 31.0713V28.9982C65.9674 29.266 65.7249 28.9982 65.7249 28.4526ZM63.2507 27.1234C63.2507 28.4724 61.3654 29.1866 59.7868 29.1866C58.5844 29.1866 57.8619 28.7998 57.8619 28.031C57.8619 27.2623 58.4557 26.9845 59.6038 26.8506L63.2606 26.4241L63.2507 27.1234Z" fill="white"/>
<path d="M35.8678 27.8277C35.8871 27.8856 35.8871 27.9483 35.8678 28.0062C35.8566 28.064 35.8292 28.1174 35.7886 28.16L33.1709 30.9126C33.1132 30.9721 33.0442 31.0193 32.968 31.0515C32.8916 31.0851 32.809 31.102 32.7256 31.1011H20.31C20.2525 31.1016 20.196 31.0862 20.1467 31.0565C20.0974 31.0229 20.0581 30.9766 20.0329 30.9226C20.0154 30.8677 20.0154 30.8088 20.0329 30.7539C20.0431 30.6968 20.0688 30.6437 20.1071 30.6002L22.7298 27.8475C22.7874 27.7881 22.8564 27.7409 22.9326 27.7087C23.0089 27.6747 23.0917 27.6577 23.1751 27.6591H35.5709C35.6307 27.6579 35.6895 27.6752 35.7391 27.7087C35.7948 27.7317 35.8405 27.7739 35.8678 27.8277ZM33.1759 22.6002C33.1169 22.5423 33.0482 22.4953 32.973 22.4613C32.8958 22.4301 32.8137 22.4133 32.7305 22.4117H20.31C20.2518 22.4125 20.195 22.4297 20.146 22.4613C20.097 22.4928 20.0578 22.5375 20.0329 22.5902C20.0158 22.6451 20.0158 22.704 20.0329 22.7589C20.0412 22.8166 20.0671 22.8703 20.1071 22.9126L22.7298 25.6702C22.7887 25.7281 22.8574 25.7751 22.9326 25.8091C23.0096 25.8407 23.0919 25.8575 23.1751 25.8587H35.5709C35.6307 25.8598 35.6895 25.8425 35.7391 25.8091C35.7891 25.7799 35.8275 25.7344 35.848 25.6801C35.8734 25.6274 35.8818 25.568 35.872 25.5103C35.8623 25.4525 35.8349 25.3992 35.7936 25.3578L33.1759 22.6002ZM20.1467 20.5667C20.196 20.5964 20.2525 20.6118 20.31 20.6113H32.7305C32.8139 20.6122 32.8966 20.5953 32.973 20.5617C33.0492 20.5295 33.1182 20.4823 33.1759 20.4228L35.7936 17.6702C35.8341 17.6276 35.8616 17.5742 35.8728 17.5164C35.8899 17.4615 35.8899 17.4027 35.8728 17.3478C35.8523 17.2936 35.8139 17.2481 35.7639 17.2189C35.7142 17.1854 35.6555 17.1681 35.5956 17.1693H23.1553C23.0719 17.1679 22.9891 17.1849 22.9129 17.2189C22.8366 17.2511 22.7676 17.2983 22.71 17.3577L20.0923 20.1203C20.0507 20.1622 20.0231 20.2159 20.0131 20.274C19.9956 20.3289 19.9956 20.3878 20.0131 20.4427C20.0452 20.4957 20.0915 20.5386 20.1467 20.5667Z" fill="url(#paint0_linear_2_60)"/>
<defs>
<linearGradient id="paint0_linear_2_60" x1="21.3409" y1="31.4332" x2="34.0922" y2="16.7744" gradientUnits="userSpaceOnUse">
<stop offset="0.08" stop-color="#9945FF"/>
<stop offset="0.3" stop-color="#8752F3"/>
<stop offset="0.5" stop-color="#5497D5"/>
<stop offset="0.6" stop-color="#43B4CA"/>
<stop offset="0.72" stop-color="#28E0B9"/>
<stop offset="0.97" stop-color="#19FB9B"/>
</linearGradient>
</defs>
</svg>
