<svg width="258" height="49" viewBox="0 0 258 49" fill="none" xmlns="http://www.w3.org/2000/svg">
<path d="M0 4.69232C0 2.48318 1.79086 0.692322 4 0.692322H254C256.209 0.692322 258 2.48318 258 4.69232V44.6923C258 46.9015 256.209 48.6923 254 48.6923H4C1.79086 48.6923 0 46.9015 0 44.6923V4.69232Z" fill="black"/>
<path d="M24.1247 31.6923H21.4529L26.3176 17.8741H29.4078L34.2792 31.6923H31.6073L27.9166 20.7079H27.8087L24.1247 31.6923ZM24.2124 26.2744H31.4994V28.285H24.2124V26.2744ZM39.5218 31.8745C38.7076 31.8745 37.9789 31.6653 37.3357 31.247C36.6924 30.8287 36.1842 30.2214 35.8108 29.4253C35.4375 28.6291 35.2508 27.662 35.2508 26.524C35.2508 25.3725 35.4397 24.4009 35.8176 23.6092C36.1999 22.8131 36.7149 22.2126 37.3627 21.8077C38.0104 21.3984 38.7323 21.1937 39.5285 21.1937C40.1357 21.1937 40.635 21.2972 41.0264 21.5041C41.4177 21.7065 41.7281 21.9517 41.9575 22.2396C42.1869 22.5229 42.3646 22.7906 42.4905 23.0425H42.5917V17.8741H45.0409V31.6923H42.6389V30.0595H42.4905C42.3646 30.3114 42.1824 30.579 41.944 30.8624C41.7056 31.1413 41.3907 31.3797 40.9994 31.5776C40.608 31.7755 40.1155 31.8745 39.5218 31.8745ZM40.2032 29.8706C40.7205 29.8706 41.1613 29.7311 41.5257 29.4523C41.89 29.1689 42.1666 28.7753 42.3556 28.2715C42.5445 27.7677 42.6389 27.1807 42.6389 26.5105C42.6389 25.8403 42.5445 25.2578 42.3556 24.763C42.1711 24.2682 41.8968 23.8836 41.5324 23.6092C41.1726 23.3348 40.7295 23.1976 40.2032 23.1976C39.6589 23.1976 39.2046 23.3393 38.8403 23.6227C38.4759 23.9061 38.2016 24.2974 38.0171 24.7967C37.8327 25.296 37.7405 25.8673 37.7405 26.5105C37.7405 27.1582 37.8327 27.7362 38.0171 28.2445C38.2061 28.7483 38.4827 29.1464 38.847 29.4388C39.2159 29.7266 39.6679 29.8706 40.2032 29.8706ZM51.4895 31.8745C50.6754 31.8745 49.9467 31.6653 49.3034 31.247C48.6602 30.8287 48.1519 30.2214 47.7786 29.4253C47.4052 28.6291 47.2186 27.662 47.2186 26.524C47.2186 25.3725 47.4075 24.4009 47.7853 23.6092C48.1677 22.8131 48.6827 22.2126 49.3304 21.8077C49.9782 21.3984 50.7001 21.1937 51.4963 21.1937C52.1035 21.1937 52.6028 21.2972 52.9941 21.5041C53.3855 21.7065 53.6958 21.9517 53.9252 22.2396C54.1547 22.5229 54.3323 22.7906 54.4583 23.0425H54.5595V17.8741H57.0087V31.6923H54.6067V30.0595H54.4583C54.3323 30.3114 54.1502 30.579 53.9118 30.8624C53.6734 31.1413 53.3585 31.3797 52.9672 31.5776C52.5758 31.7755 52.0833 31.8745 51.4895 31.8745ZM52.171 29.8706C52.6883 29.8706 53.1291 29.7311 53.4934 29.4523C53.8578 29.1689 54.1344 28.7753 54.3233 28.2715C54.5123 27.7677 54.6067 27.1807 54.6067 26.5105C54.6067 25.8403 54.5123 25.2578 54.3233 24.763C54.1389 24.2682 53.8645 23.8836 53.5002 23.6092C53.1403 23.3348 52.6973 23.1976 52.171 23.1976C51.6267 23.1976 51.1724 23.3393 50.8081 23.6227C50.4437 23.9061 50.1693 24.2974 49.9849 24.7967C49.8005 25.296 49.7083 25.8673 49.7083 26.5105C49.7083 27.1582 49.8005 27.7362 49.9849 28.2445C50.1738 28.7483 50.4505 29.1464 50.8148 29.4388C51.1837 29.7266 51.6357 29.8706 52.171 29.8706ZM64.4323 17.8741H67.4955L71.5977 27.8869H71.7597L75.862 17.8741H78.9252V31.6923H76.5232V22.1991H76.395L72.5761 31.6518H70.7813L66.9624 22.1788H66.8343V31.6923H64.4323V17.8741ZM86.0637 31.8947C85.0516 31.8947 84.1744 31.6721 83.4323 31.2268C82.6901 30.7815 82.1143 30.1585 81.705 29.3578C81.3002 28.5571 81.0977 27.6215 81.0977 26.551C81.0977 25.4804 81.3002 24.5426 81.705 23.7374C82.1143 22.9323 82.6901 22.307 83.4323 21.8617C84.1744 21.4164 85.0516 21.1937 86.0637 21.1937C87.0757 21.1937 87.9529 21.4164 88.695 21.8617C89.4372 22.307 90.0107 22.9323 90.4156 23.7374C90.8249 24.5426 91.0296 25.4804 91.0296 26.551C91.0296 27.6215 90.8249 28.5571 90.4156 29.3578C90.0107 30.1585 89.4372 30.7815 88.695 31.2268C87.9529 31.6721 87.0757 31.8947 86.0637 31.8947ZM86.0771 29.9381C86.6259 29.9381 87.0847 29.7874 87.4536 29.486C87.8224 29.1801 88.0968 28.7708 88.2767 28.258C88.4611 27.7452 88.5534 27.174 88.5534 26.5442C88.5534 25.91 88.4611 25.3365 88.2767 24.8237C88.0968 24.3064 87.8224 23.8949 87.4536 23.589C87.0847 23.2831 86.6259 23.1302 86.0771 23.1302C85.5149 23.1302 85.0471 23.2831 84.6737 23.589C84.3049 23.8949 84.0283 24.3064 83.8438 24.8237C83.6639 25.3365 83.574 25.91 83.574 26.5442C83.574 27.174 83.6639 27.7452 83.8438 28.258C84.0283 28.7708 84.3049 29.1801 84.6737 29.486C85.0471 29.7874 85.5149 29.9381 86.0771 29.9381ZM95.5451 25.6199V31.6923H93.1026V21.3287H95.4371V23.0897H95.5586C95.797 22.5094 96.1771 22.0484 96.6989 21.7065C97.2251 21.3647 97.8751 21.1937 98.6488 21.1937C99.364 21.1937 99.987 21.3467 100.518 21.6525C101.053 21.9584 101.467 22.4015 101.759 22.9817C102.056 23.562 102.202 24.2659 102.198 25.0936V31.6923H99.7553V25.4714C99.7553 24.7787 99.5754 24.2367 99.2156 23.8454C98.8602 23.454 98.3677 23.2584 97.7379 23.2584C97.3106 23.2584 96.9305 23.3528 96.5977 23.5418C96.2693 23.7262 96.0107 23.9938 95.8217 24.3447C95.6373 24.6955 95.5451 25.1206 95.5451 25.6199ZM109.269 31.8947C108.23 31.8947 107.332 31.6788 106.577 31.247C105.826 30.8107 105.248 30.1945 104.843 29.3983C104.438 28.5976 104.235 27.6553 104.235 26.5712C104.235 25.5052 104.438 24.5696 104.843 23.7644C105.252 22.9548 105.823 22.325 106.556 21.8752C107.29 21.4209 108.151 21.1937 109.141 21.1937C109.779 21.1937 110.382 21.2972 110.949 21.5041C111.52 21.7065 112.024 22.0214 112.46 22.4487C112.901 22.876 113.247 23.4203 113.499 24.0815C113.751 24.7382 113.877 25.5209 113.877 26.4295V27.1785H105.382V25.5322H111.536C111.531 25.0644 111.43 24.6483 111.232 24.2839C111.034 23.9151 110.758 23.625 110.402 23.4136C110.051 23.2021 109.642 23.0964 109.174 23.0964C108.675 23.0964 108.237 23.2179 107.859 23.4608C107.481 23.6992 107.186 24.0141 106.975 24.4054C106.768 24.7922 106.662 25.2173 106.658 25.6806V27.1177C106.658 27.7205 106.768 28.2378 106.988 28.6696C107.209 29.0969 107.517 29.4253 107.913 29.6547C108.308 29.8796 108.772 29.992 109.303 29.992C109.658 29.992 109.98 29.9426 110.267 29.8436C110.555 29.7401 110.805 29.5895 111.016 29.3915C111.228 29.1936 111.387 28.9485 111.495 28.6561L113.776 28.9125C113.632 29.5152 113.358 30.0415 112.953 30.4913C112.552 30.9366 112.04 31.283 111.414 31.5304C110.789 31.7733 110.074 31.8947 109.269 31.8947ZM117.165 35.5787C116.832 35.5787 116.524 35.5517 116.24 35.4977C115.961 35.4482 115.739 35.3898 115.572 35.3223L116.139 33.4196C116.494 33.5231 116.812 33.5725 117.09 33.568C117.369 33.5635 117.614 33.4758 117.826 33.3049C118.042 33.1385 118.224 32.8596 118.372 32.4682L118.582 31.9082L114.823 21.3287H117.414L119.803 29.1554H119.911L122.306 21.3287H124.904L120.754 32.9473C120.561 33.4961 120.304 33.9661 119.985 34.3574C119.666 34.7533 119.274 35.0547 118.811 35.2616C118.352 35.473 117.803 35.5787 117.165 35.5787ZM133.446 31.6923L130.517 21.3287H133.007L134.829 28.6156H134.923L136.785 21.3287H139.248L141.11 28.5751H141.212L143.006 21.3287H145.503L142.568 31.6923H140.024L138.081 24.6888H137.939L135.996 31.6923H133.446ZM147.208 31.6923V21.3287H149.651V31.6923H147.208ZM148.436 19.8578C148.049 19.8578 147.716 19.7296 147.438 19.4732C147.159 19.2123 147.019 18.8997 147.019 18.5354C147.019 18.1665 147.159 17.8539 147.438 17.5975C147.716 17.3366 148.049 17.2062 148.436 17.2062C148.827 17.2062 149.16 17.3366 149.435 17.5975C149.714 17.8539 149.853 18.1665 149.853 18.5354C149.853 18.8997 149.714 19.2123 149.435 19.4732C149.16 19.7296 148.827 19.8578 148.436 19.8578ZM157.337 21.3287V23.2179H151.38V21.3287H157.337ZM152.85 18.8457H155.293V28.5751C155.293 28.9035 155.342 29.1554 155.441 29.3308C155.545 29.5017 155.68 29.6187 155.846 29.6817C156.013 29.7446 156.197 29.7761 156.399 29.7761C156.552 29.7761 156.692 29.7649 156.818 29.7424C156.948 29.7199 157.047 29.6997 157.115 29.6817L157.526 31.5911C157.396 31.6361 157.209 31.6856 156.966 31.7396C156.728 31.7935 156.435 31.825 156.089 31.834C155.477 31.852 154.926 31.7598 154.436 31.5574C153.946 31.3505 153.557 31.0311 153.269 30.5993C152.985 30.1675 152.846 29.6277 152.85 28.98V18.8457ZM162.045 25.6199V31.6923H159.603V17.8741H161.991V23.0897H162.113C162.355 22.5049 162.731 22.0439 163.239 21.7065C163.752 21.3647 164.404 21.1937 165.196 21.1937C165.916 21.1937 166.543 21.3444 167.078 21.6458C167.614 21.9472 168.028 22.388 168.32 22.9682C168.617 23.5485 168.765 24.257 168.765 25.0936V31.6923H166.323V25.4714C166.323 24.7742 166.143 24.2322 165.783 23.8454C165.428 23.454 164.928 23.2584 164.285 23.2584C163.853 23.2584 163.467 23.3528 163.125 23.5418C162.787 23.7262 162.522 23.9938 162.328 24.3447C162.14 24.6955 162.045 25.1206 162.045 25.6199Z" fill="white"/>
<path d="M231.8 29.0457L228.336 21.4772H225.461L230.409 31.6893L230.32 31.9968C230.196 32.4055 229.934 32.7585 229.58 32.9955C229.225 33.2325 228.799 33.3388 228.375 33.2962C227.879 33.2916 227.392 33.1601 226.96 32.9143L226.5 35.1015C227.164 35.3759 227.875 35.519 228.593 35.5231C230.572 35.5231 231.77 34.794 232.76 32.6465L238 21.4772H235.224L231.8 29.0457Z" fill="white"/>
<path d="M207.319 17.8715H199.015V31.7835H201.737V26.67H207.319C210.352 26.67 212.346 25.1375 212.346 22.2708C212.346 19.404 210.352 17.8715 207.319 17.8715ZM207.17 24.2348H201.727V20.267H207.17C208.744 20.267 209.644 20.9862 209.644 22.2509C209.644 23.5156 208.744 24.2348 207.17 24.2348Z" fill="white"/>
<path d="M223.725 29.1449V24.954C223.725 22.4741 221.948 21.1895 218.9 21.1895C216.426 21.1895 214.259 22.3452 213.65 24.1207L215.887 24.9143C216.218 24.0265 217.371 23.3718 218.806 23.3718C220.508 23.3718 221.226 24.0662 221.226 24.9143V25.1871L217.178 25.6334C214.847 25.8814 213.313 26.9279 213.313 28.7977C213.313 30.8461 215.07 31.9472 217.401 31.9472C218.903 31.9941 220.366 31.4615 221.488 30.4592C221.894 31.4512 222.31 32.1158 225.076 31.7637V29.6905C223.967 29.9583 223.725 29.6905 223.725 29.1449ZM221.251 27.8157C221.251 29.1648 219.365 29.879 217.787 29.879C216.584 29.879 215.862 29.4921 215.862 28.7233C215.862 27.9546 216.456 27.6768 217.604 27.5429L221.261 27.1164L221.251 27.8157Z" fill="white"/>
<path d="M193.868 28.52C193.887 28.578 193.887 28.6406 193.868 28.6986C193.857 28.7564 193.829 28.8097 193.789 28.8523L191.171 31.605C191.113 31.6644 191.044 31.7116 190.968 31.7438C190.892 31.7774 190.809 31.7943 190.726 31.7934H178.31C178.252 31.7939 178.196 31.7785 178.147 31.7488C178.097 31.7152 178.058 31.6689 178.033 31.6149C178.015 31.56 178.015 31.5011 178.033 31.4462C178.043 31.3892 178.069 31.336 178.107 31.2925L180.73 28.5399C180.787 28.4804 180.856 28.4332 180.933 28.401C181.009 28.367 181.092 28.35 181.175 28.3514H193.571C193.631 28.3502 193.689 28.3676 193.739 28.401C193.795 28.424 193.84 28.4662 193.868 28.52ZM191.176 23.2925C191.117 23.2346 191.048 23.1876 190.973 23.1536C190.896 23.1224 190.814 23.1056 190.731 23.104H178.31C178.252 23.1049 178.195 23.122 178.146 23.1536C178.097 23.1852 178.058 23.2298 178.033 23.2826C178.016 23.3375 178.016 23.3963 178.033 23.4512C178.041 23.5089 178.067 23.5626 178.107 23.6049L180.73 26.3625C180.789 26.4204 180.857 26.4674 180.933 26.5014C181.01 26.533 181.092 26.5499 181.175 26.551H193.571C193.631 26.5521 193.689 26.5348 193.739 26.5014C193.789 26.4722 193.828 26.4267 193.848 26.3725C193.873 26.3197 193.882 26.2603 193.872 26.2026C193.862 26.1448 193.835 26.0915 193.794 26.0501L191.176 23.2925ZM178.147 21.259C178.196 21.2887 178.252 21.3041 178.31 21.3036H190.731C190.814 21.3045 190.897 21.2876 190.973 21.254C191.049 21.2218 191.118 21.1746 191.176 21.1152L193.794 18.3625C193.834 18.3199 193.862 18.2666 193.873 18.2088C193.89 18.1539 193.89 18.095 193.873 18.0401C193.852 17.9859 193.814 17.9404 193.764 17.9112C193.714 17.8778 193.655 17.8604 193.596 17.8616H181.155C181.072 17.8603 180.989 17.8772 180.913 17.9112C180.837 17.9434 180.768 17.9906 180.71 18.0501L178.092 20.8126C178.051 20.8545 178.023 20.9082 178.013 20.9664C177.996 21.0212 177.996 21.0801 178.013 21.135C178.045 21.188 178.091 21.231 178.147 21.259Z" fill="url(#paint0_linear_2_168)"/>
<defs>
<linearGradient id="paint0_linear_2_168" x1="179.341" y1="32.1255" x2="192.092" y2="17.4667" gradientUnits="userSpaceOnUse">
<stop offset="0.08" stop-color="#9945FF"/>
<stop offset="0.3" stop-color="#8752F3"/>
<stop offset="0.5" stop-color="#5497D5"/>
<stop offset="0.6" stop-color="#43B4CA"/>
<stop offset="0.72" stop-color="#28E0B9"/>
<stop offset="0.97" stop-color="#19FB9B"/>
</linearGradient>
</defs>
</svg>
